Coordinates
version=1
nRows=8
nColumns=40
inDegrees=yes

Units are S.I. units (second, meters, Newtons, ...)
Angles are in degrees.

endheader
time	pelvis_tilt	pelvis_list	pelvis_rotation	pelvis_tx	pelvis_ty	pelvis_tz	hip_flexion_r	hip_adduction_r	hip_rotation_r	knee_angle_r	knee_angle_r_beta	ankle_angle_r	subtalar_angle_r	mtp_angle_r	hip_flexion_l	hip_adduction_l	hip_rotation_l	knee_angle_l	knee_angle_l_beta	ankle_angle_l	subtalar_angle_l	mtp_angle_l	lumbar_extension	lumbar_bending	lumbar_rotation	arm_flex_r	arm_add_r	arm_rot_r	elbow_flex_r	pro_sup_r	wrist_flex_r	wrist_dev_r	arm_flex_l	arm_add_l	arm_rot_l	elbow_flex_l	pro_sup_l	wrist_flex_l	wrist_dev_l
      0.00000000	     -2.29901066	      4.23740421	    -12.27407305	     -1.12312070	      0.86753129	     -0.97084772	    -12.69583452	     -9.94862389	    -20.94335708	    -26.66017523	     -0.46530784	      2.05226363	      1.07167253	     -0.59577199	     27.71194744	     -0.33125137	     12.96080483	    -33.22244188	     -0.57984100	      6.70477634	      5.88400412	     -3.31702394	     -8.51579485	      2.19645581	      6.91369994	      6.26188554	    -14.11687840	     23.10284551	     20.17436719	     89.95437384	      0.00000000	      0.00000000	     -5.51804479	      7.91672064	    -20.31430247	     12.35739625	     89.95437384	      0.00000000	      0.00000000
      0.01000000	     -2.32542845	      4.50843558	    -12.23854901	     -1.11139215	      0.86810065	     -0.97262671	    -12.19417985	    -10.69473048	    -20.41221881	    -28.27871083	     -0.49355661	     -0.11513911	      0.20316797	     -0.18176097	     27.10999194	     -1.02794558	     12.73624335	    -33.34480172	     -0.58197658	      7.41287915	      5.77031743	     -3.44757223	     -8.06990626	      1.81914704	      6.49840450	      5.92568270	    -14.00035238	     22.60153362	     19.93124149	     89.95437384	      0.00000000	      0.00000000	     -5.54866313	      7.74236542	    -20.58806196	     11.28303637	     89.95437384	      0.00000000	      0.00000000
      0.02000000	     -2.59713342	      4.77818611	    -12.11197485	     -1.09999468	      0.86859164	     -0.97439596	    -11.09478349	    -11.29583254	    -19.59568880	    -30.32638732	     -0.52929531	     -2.68915267	     -2.01989287	      0.73035351	     26.62309540	     -1.79635055	     12.28857840	    -33.16313848	     -0.57880596	      8.00404323	      6.50246940	     -3.53804154	     -7.39957812	      1.51088230	      6.01723040	      5.53140552	    -13.79240227	     21.55221874	     19.74153271	     89.95437384	      0.00000000	      0.00000000	     -5.58278148	      7.62209837	    -20.76010987	     10.48550779	     89.95437384	      0.00000000	      0.00000000
      0.03000000	     -2.77852517	      4.94984867	    -11.93757709	     -1.08860814	      0.86947471	     -0.97625587	     -9.95861647	    -11.70766763	    -18.56255272	    -32.40593674	     -0.56559029	     -5.85393786	     -4.22966896	      1.88650190	     25.93367556	     -2.43668644	     12.01556036	    -32.94744357	     -0.57504137	      8.72180108	      6.81644033	     -3.64712027	     -6.88786562	      1.28717670	      5.52933410	      5.16614865	    -13.67520208	     20.90662262	     19.53286489	     89.95437384	      0.00000000	      0.00000000	     -5.46143238	      7.49380198	    -20.79633399	      9.74669258	     89.95437384	      0.00000000	      0.00000000
      0.04000000	     -3.00918889	      4.93889334	    -11.70129818	     -1.07781497	      0.87055995	     -0.97804805	     -8.56540459	    -11.67042328	    -16.88653904	    -34.63189656	     -0.60444062	     -9.49743514	     -7.77796327	      3.90134187	     25.18713202	     -2.93842293	     11.51266358	    -32.48865491	     -0.56703400	      9.35053117	      7.36234466	     -3.76621555	     -6.47776438	      1.26812412	      4.95720902	      4.92858456	    -13.54643807	     20.41447788	     19.30759696	     89.95437384	      0.00000000	      0.00000000	     -5.20380503	      7.35238657	    -20.64785131	      9.10379736	     89.95437384	      0.00000000	      0.00000000
      0.05000000	     -3.19885216	      4.82588078	    -11.53599808	     -1.06740753	      0.87184589	     -0.97962020	     -6.88709265	    -11.36576925	    -14.71550303	    -37.28767598	     -0.65079272	    -11.81259707	    -10.31723977	     12.42348511	     24.36233533	     -3.23336887	     11.04419794	    -32.01989342	     -0.55885257	      9.83704417	      7.22941864	     -4.79211659	     -6.19717306	      1.33371868	      4.46343960	      4.79897169	    -13.38075863	     19.72864050	     18.99696238	     89.95437384	      0.00000000	      0.00000000	     -4.84578038	      7.27409071	    -20.78807332	      8.66645730	     89.95437384	      0.00000000	      0.00000000
      0.06000000	     -3.43927769	      4.88334030	    -11.35125092	     -1.05706965	      0.87296371	     -0.98139841	     -4.89512214	    -11.34858041	    -12.94731959	    -40.30848321	     -0.70351575	    -14.25506276	    -12.59414514	     13.34331597	     23.51481783	     -3.74194465	     10.84912516	    -31.29373567	     -0.54617872	     10.41444522	      7.67658185	     -4.76103864	     -5.83340863	      1.25574362	      3.91923313	      4.60410946	    -13.34662032	     19.57972601	     18.90710625	     89.95437384	      0.00000000	      0.00000000	     -4.57178760	      7.31764199	    -21.02677918	      8.70994844	     89.95437384	      0.00000000	      0.00000000
      0.07000000	     -3.50826200	      4.89396398	    -11.14601664	     -1.04683302	      0.87434202	     -0.98305138	     -2.94901302	    -11.08510557	    -10.96767072	    -43.48905703	     -0.75902723	    -16.28422143	    -14.01633462	     13.91277316	     22.49456534	     -4.24420051	     10.36607881	    -30.58807201	     -0.53386257	     11.02303128	      7.63007193	     -4.80980669	     -5.71349216	      1.17011360	      3.33708781	      4.54548829	    -13.24279015	     19.51183471	     18.58390992	     89.95437384	      0.00000000	      0.00000000	     -4.14767118	      7.37677796	    -21.53436513	      8.74440556	     89.95437384	      0.00000000	      0.00000000
